HIERARCHY
ROOT root
{
	OFFSET 0.000000 0.000000 0.000000
	CHANNELS 6 Xposition Yposition Zposition Zrotation Yrotation Xrotation
	JOINT lhip
	{
		OFFSET 0.058581 -0.082280 -0.017664
		CHANNELS 3 Zrotation Yrotation Xrotation
		JOINT lknee
		{
			OFFSET 0.043451 -0.386469 0.008037
			CHANNELS 3 Zrotation Yrotation Xrotation
			JOINT lankle
			{
				OFFSET -0.014790 -0.426874 -0.037428
				CHANNELS 3 Zrotation Yrotation Xrotation
				JOINT ltoe
				{
					OFFSET 0.041054 -0.060286 0.122042
					CHANNELS 3 Zrotation Yrotation Xrotation
					End Site
					{
						OFFSET 0.000000 0.000000 0.000000
					}
				}
			}
		}
	}
	JOINT rhip
	{
		OFFSET -0.060310 -0.090513 -0.013543
		CHANNELS 3 Zrotation Yrotation Xrotation
		JOINT rknee
		{
			OFFSET -0.043257 -0.383688 -0.004843
			CHANNELS 3 Zrotation Yrotation Xrotation
			JOINT rankle
			{
				OFFSET 0.019056 -0.420046 -0.034562
				CHANNELS 3 Zrotation Yrotation Xrotation
				JOINT rtoe
				{
					OFFSET -0.034840 -0.062106 0.130323
					CHANNELS 3 Zrotation Yrotation Xrotation
					End Site
					{
						OFFSET 0.000000 0.000000 0.000000
					}
				}
			}
		}
	}
	JOINT lowerback
	{
		OFFSET 0.004439 0.124404 -0.038385
		CHANNELS 3 Zrotation Yrotation Xrotation
		JOINT upperback
		{
			OFFSET 0.004488 0.137956 0.026820
			CHANNELS 3 Zrotation Yrotation Xrotation
			JOINT chest
			{
				OFFSET -0.002265 0.056032 0.002855
				CHANNELS 3 Zrotation Yrotation Xrotation
				JOINT lowerneck
				{
					OFFSET -0.013390 0.211636 -0.033468
					CHANNELS 3 Zrotation Yrotation Xrotation
					JOINT upperneck
					{
						OFFSET 0.010113 0.088937 0.050410
						CHANNELS 3 Zrotation Yrotation Xrotation
						End Site
						{
							OFFSET 0.000000 0.000000 0.000000
						}
					}
				}
				JOINT lclavicle
				{
					OFFSET 0.071702 0.114000 -0.018898
					CHANNELS 3 Zrotation Yrotation Xrotation
					JOINT lshoulder
					{
						OFFSET 0.122921 0.045205 -0.019046
						CHANNELS 3 Zrotation Yrotation Xrotation
						JOINT lelbow
						{
							OFFSET 0.255332 -0.015649 -0.022946
							CHANNELS 3 Zrotation Yrotation Xrotation
							JOINT lwrist
							{
								OFFSET 0.265709 0.012698 -0.007375
								CHANNELS 3 Zrotation Yrotation Xrotation
								End Site
								{
									OFFSET 0.000000 0.000000 0.000000
								}
							}
						}
					}
				}
				JOINT rclavicle
				{
					OFFSET -0.082954 0.112472 -0.023707
					CHANNELS 3 Zrotation Yrotation Xrotation
					JOINT rshoulder
					{
						OFFSET -0.113228 0.046853 -0.008472
						CHANNELS 3 Zrotation Yrotation Xrotation
						JOINT relbow
						{
							OFFSET -0.260127 -0.014369 -0.031269
							CHANNELS 3 Zrotation Yrotation Xrotation
							JOINT rwrist
							{
								OFFSET -0.269108 0.006794 -0.006027
								CHANNELS 3 Zrotation Yrotation Xrotation
								End Site
								{
									OFFSET 0.000000 0.000000 0.000000
								}
							}
						}
					}
				}
			}
		}
	}
}
MOTION
Frames: 8
Frame Time: 0.033333
1.346434 0.331615 0.997590 -8.365804 14.099651 100.555146 13.851996 0.761765 -18.377303 -2.519059 -5.948073 16.460878 10.673049 13.458546 -25.403813 0.000000 -0.000000 0.000000 5.836954 9.300448 -15.067056 5.624966 13.439583 2.845660 2.585650 -5.261797 -4.373812 0.000000 -0.000000 0.000000 -1.385265 0.207606 4.334628 4.836268 -2.923706 -6.084811 0.699377 -0.830860 -2.599470 10.937710 -0.266243 -12.208655 10.554355 -9.643610 8.541242 -28.322793 -4.753754 11.193768 -53.858467 -9.330421 8.142791 9.264092 -34.967911 7.431134 9.844654 -20.145194 -13.498329 24.265759 -0.777608 8.230701 62.204143 -3.939303 2.395900 -23.330176 34.866291 -2.150089 10.599342 14.960066 -20.145641 
1.342919 0.332640 0.997767 -8.813788 14.210474 100.620500 14.274083 1.225426 -18.589761 -2.651567 -5.490408 16.742000 11.391269 13.159914 -25.381792 0.000000 -0.000000 0.000000 3.954415 7.515681 -15.505397 5.559050 12.696379 3.394348 2.630680 -6.545226 -4.437535 0.000000 -0.000000 0.000000 -1.323396 0.238097 3.961643 4.476313 -3.028568 -5.402672 0.940433 -0.646437 -2.551298 9.791597 -2.276803 -12.555049 11.233320 -8.855271 9.223393 -27.539859 -5.055627 10.993408 -54.063162 -9.133801 7.580519 9.636297 -33.790916 7.168477 12.209693 -18.661014 -13.536323 22.891869 -0.298578 9.020494 63.861421 -3.624102 4.632033 -26.579746 34.375699 -7.407911 9.512743 14.527038 -18.912719 
1.339169 0.332885 0.997631 -9.074278 14.207300 100.485485 14.196979 2.245197 -18.743793 -2.777904 -6.322875 17.256373 10.856589 13.351971 -25.603412 0.000000 -0.000000 0.000000 2.181513 4.772118 -16.153651 5.417398 11.641074 4.917830 3.369559 -6.395241 -4.310762 0.000000 -0.000000 0.000000 -1.228693 0.445899 3.847105 4.561659 -3.109384 -5.451529 0.635153 -0.897295 -2.112307 10.543455 -1.285932 -11.978590 9.821350 -9.830342 8.449927 -27.574508 -4.604805 11.132382 -53.306787 -9.439472 6.895499 10.118194 -32.459113 7.391488 13.340177 -17.426594 -15.651381 24.280187 -0.776005 7.147180 61.284964 -5.086708 2.101627 -23.968614 37.258178 -2.233665 8.773615 14.880261 -21.083480 
1.333677 0.333181 0.996871 -9.458583 13.800072 100.348367 13.932588 2.876582 -18.751909 -2.860256 -6.675903 17.628777 11.422066 13.580320 -25.665037 0.000000 -0.000000 0.000000 -0.584300 2.168821 -16.814763 5.383051 11.447732 6.680668 3.985775 -7.684425 -3.813184 0.000000 -0.000000 0.000000 -0.912181 0.307658 3.820491 3.964463 -2.782568 -6.137789 0.289490 -0.647775 -0.932391 10.490453 -2.701013 -12.469022 9.827548 -8.785429 8.389704 -26.752039 -3.931767 10.834422 -52.969793 -10.188365 6.453644 9.767578 -30.535398 6.863347 16.359078 -15.516389 -16.624086 23.862478 -1.562790 7.624035 61.949826 -3.958903 2.605266 -24.529160 37.484409 -5.849353 6.037566 14.171056 -18.344598 
1.329417 0.333325 0.996043 -9.654670 13.682528 100.301303 14.072808 3.119629 -18.838720 -2.882144 -6.532868 17.822733 11.504783 13.468134 -25.793720 0.000000 -0.000000 0.000000 -1.960537 1.020306 -17.323091 5.305346 10.929063 7.888181 3.789824 -7.671261 -3.776586 0.000000 -0.000000 0.000000 -0.971469 0.592309 3.586124 4.180289 -2.811339 -5.982204 0.384046 -0.674153 -0.782057 10.119548 -2.573476 -12.644537 9.616974 -8.774126 8.507298 -26.714721 -3.582058 10.660728 -52.731566 -9.990817 5.914704 9.931852 -30.045227 6.139079 16.568916 -15.321109 -16.767920 24.055435 -1.899711 7.785378 61.443050 -3.741722 3.023792 -25.343846 37.788100 -7.132862 6.251127 14.169131 -17.830011 
1.322486 0.333549 0.994614 -9.895523 13.437511 100.252088 14.374974 3.424944 -18.850475 -3.059253 -6.274387 18.005324 11.672246 13.286000 -25.969901 0.000000 -0.000000 0.000000 -3.871974 -0.126661 -17.588467 5.416246 10.743107 8.756327 3.921380 -7.706826 -3.479567 0.000000 -0.000000 0.000000 -1.067130 0.889957 3.066278 4.396851 -2.827732 -5.619054 0.526142 -0.717943 -0.685347 9.583892 -2.616545 -12.689903 9.610857 -8.436173 8.765566 -26.443824 -2.927911 10.501856 -52.436204 -9.523505 5.350195 9.906671 -29.905766 5.743505 16.748507 -15.176918 -16.868414 23.950736 -2.339356 7.843689 61.454137 -3.461841 3.997872 -26.652678 37.557143 -9.235379 7.028341 14.096741 -16.616748 
1.314068 0.333742 0.993322 -9.913271 13.124421 100.113334 14.461407 3.965163 -18.799758 -3.280968 -6.735481 18.219648 11.027297 13.299061 -26.166347 0.000000 -0.000000 0.000000 -5.204729 -1.320086 -17.602470 5.219059 10.473046 9.254985 4.789803 -7.067789 -3.201093 0.000000 -0.000000 0.000000 -1.318540 1.220129 2.477474 4.827078 -2.971922 -5.167970 0.563173 -1.120217 -0.917851 10.050595 -1.146297 -11.538594 8.545297 -9.035091 8.226672 -26.466087 -1.980164 10.729277 -51.622216 -8.938427 4.825076 9.814197 -30.286178 6.750486 16.041088 -15.166543 -18.309750 25.042352 -2.859433 5.959441 59.440408 -4.907881 3.044397 -24.616500 38.777027 -4.531706 7.991570 14.418062 -18.763488 
1.304696 0.332877 0.991384 -9.794210 12.436902 100.014259 14.553629 4.196807 -18.636758 -3.556738 -6.774189 18.320691 11.300128 13.174721 -26.301039 0.000000 -0.000000 0.000000 -6.935401 -2.339772 -17.172928 5.106298 11.012867 9.038423 5.690273 -7.286668 -2.678361 0.000000 -0.000000 0.000000 -1.448454 1.358627 1.887387 4.635572 -2.758054 -5.384032 0.339769 -0.557477 -0.050954 10.133872 -1.460609 -12.361091 8.860428 -9.108781 8.579298 -25.695424 -1.595856 10.582585 -50.784223 -8.946233 4.749208 8.863493 -30.018227 7.266950 16.736659 -15.223032 -17.702430 25.017686 -3.612001 7.361037 60.330142 -3.623252 3.004468 -25.223679 37.670621 -7.803879 7.126756 14.026302 -16.176654 
